G04 #@! TF.GenerationSoftware,KiCad,Pcbnew,7.0.6*
G04 #@! TF.CreationDate,2023-10-04T20:15:19-05:00*
G04 #@! TF.ProjectId,qvadrans_adapter_board,71766164-7261-46e7-935f-616461707465,rev?*
G04 #@! TF.SameCoordinates,Original*
G04 #@! TF.FileFunction,Legend,Top*
G04 #@! TF.FilePolarity,Positive*
%FSLAX46Y46*%
G04 Gerber Fmt 4.6, Leading zero omitted, Abs format (unit mm)*
G04 Created by KiCad (PCBNEW 7.0.6) date 2023-10-04 20:15:19*
%MOMM*%
%LPD*%
G01*
G04 APERTURE LIST*
G04 Aperture macros list*
%AMRoundRect*
0 Rectangle with rounded corners*
0 $1 Rounding radius*
0 $2 $3 $4 $5 $6 $7 $8 $9 X,Y pos of 4 corners*
0 Add a 4 corners polygon primitive as box body*
4,1,4,$2,$3,$4,$5,$6,$7,$8,$9,$2,$3,0*
0 Add four circle primitives for the rounded corners*
1,1,$1+$1,$2,$3*
1,1,$1+$1,$4,$5*
1,1,$1+$1,$6,$7*
1,1,$1+$1,$8,$9*
0 Add four rect primitives between the rounded corners*
20,1,$1+$1,$2,$3,$4,$5,0*
20,1,$1+$1,$4,$5,$6,$7,0*
20,1,$1+$1,$6,$7,$8,$9,0*
20,1,$1+$1,$8,$9,$2,$3,0*%
G04 Aperture macros list end*
%ADD10C,0.150000*%
%ADD11C,0.120000*%
%ADD12R,1.700000X1.700000*%
%ADD13O,1.700000X1.700000*%
%ADD14RoundRect,0.100000X0.217500X0.100000X-0.217500X0.100000X-0.217500X-0.100000X0.217500X-0.100000X0*%
%ADD15C,3.500000*%
%ADD16R,1.700000X1.950000*%
%ADD17O,1.700000X1.950000*%
%ADD18RoundRect,0.100000X-0.217500X-0.100000X0.217500X-0.100000X0.217500X0.100000X-0.217500X0.100000X0*%
%ADD19O,1.000000X1.000000*%
%ADD20R,1.000000X1.000000*%
%ADD21RoundRect,0.350000X-0.350000X0.450000X-0.350000X-0.450000X0.350000X-0.450000X0.350000X0.450000X0*%
%ADD22C,3.800000*%
G04 APERTURE END LIST*
D10*
X151989286Y-98179819D02*
X151989286Y-97179819D01*
X151989286Y-97656009D02*
X152560714Y-97656009D01*
X152560714Y-98179819D02*
X152560714Y-97179819D01*
X152634523Y-103204819D02*
X152158333Y-103204819D01*
X152158333Y-103204819D02*
X152158333Y-102204819D01*
X153734819Y-114361904D02*
X152734819Y-114361904D01*
X153211009Y-114361904D02*
X153211009Y-113790476D01*
X153734819Y-113790476D02*
X152734819Y-113790476D01*
X152734819Y-113409523D02*
X152734819Y-112790476D01*
X152734819Y-112790476D02*
X153115771Y-113123809D01*
X153115771Y-113123809D02*
X153115771Y-112980952D01*
X153115771Y-112980952D02*
X153163390Y-112885714D01*
X153163390Y-112885714D02*
X153211009Y-112838095D01*
X153211009Y-112838095D02*
X153306247Y-112790476D01*
X153306247Y-112790476D02*
X153544342Y-112790476D01*
X153544342Y-112790476D02*
X153639580Y-112838095D01*
X153639580Y-112838095D02*
X153687200Y-112885714D01*
X153687200Y-112885714D02*
X153734819Y-112980952D01*
X153734819Y-112980952D02*
X153734819Y-113266666D01*
X153734819Y-113266666D02*
X153687200Y-113361904D01*
X153687200Y-113361904D02*
X153639580Y-113409523D01*
X147004819Y-104141666D02*
X146528628Y-104474999D01*
X147004819Y-104713094D02*
X146004819Y-104713094D01*
X146004819Y-104713094D02*
X146004819Y-104332142D01*
X146004819Y-104332142D02*
X146052438Y-104236904D01*
X146052438Y-104236904D02*
X146100057Y-104189285D01*
X146100057Y-104189285D02*
X146195295Y-104141666D01*
X146195295Y-104141666D02*
X146338152Y-104141666D01*
X146338152Y-104141666D02*
X146433390Y-104189285D01*
X146433390Y-104189285D02*
X146481009Y-104236904D01*
X146481009Y-104236904D02*
X146528628Y-104332142D01*
X146528628Y-104332142D02*
X146528628Y-104713094D01*
X146004819Y-103808332D02*
X146004819Y-103189285D01*
X146004819Y-103189285D02*
X146385771Y-103522618D01*
X146385771Y-103522618D02*
X146385771Y-103379761D01*
X146385771Y-103379761D02*
X146433390Y-103284523D01*
X146433390Y-103284523D02*
X146481009Y-103236904D01*
X146481009Y-103236904D02*
X146576247Y-103189285D01*
X146576247Y-103189285D02*
X146814342Y-103189285D01*
X146814342Y-103189285D02*
X146909580Y-103236904D01*
X146909580Y-103236904D02*
X146957200Y-103284523D01*
X146957200Y-103284523D02*
X147004819Y-103379761D01*
X147004819Y-103379761D02*
X147004819Y-103665475D01*
X147004819Y-103665475D02*
X146957200Y-103760713D01*
X146957200Y-103760713D02*
X146909580Y-103808332D01*
X125878095Y-88532819D02*
X125878095Y-87532819D01*
X125878095Y-88009009D02*
X126449523Y-88009009D01*
X126449523Y-88532819D02*
X126449523Y-87532819D01*
X126878095Y-87628057D02*
X126925714Y-87580438D01*
X126925714Y-87580438D02*
X127020952Y-87532819D01*
X127020952Y-87532819D02*
X127259047Y-87532819D01*
X127259047Y-87532819D02*
X127354285Y-87580438D01*
X127354285Y-87580438D02*
X127401904Y-87628057D01*
X127401904Y-87628057D02*
X127449523Y-87723295D01*
X127449523Y-87723295D02*
X127449523Y-87818533D01*
X127449523Y-87818533D02*
X127401904Y-87961390D01*
X127401904Y-87961390D02*
X126830476Y-88532819D01*
X126830476Y-88532819D02*
X127449523Y-88532819D01*
X142748095Y-88752819D02*
X142748095Y-87752819D01*
X142748095Y-88229009D02*
X143319523Y-88229009D01*
X143319523Y-88752819D02*
X143319523Y-87752819D01*
X144224285Y-88086152D02*
X144224285Y-88752819D01*
X143986190Y-87705200D02*
X143748095Y-88419485D01*
X143748095Y-88419485D02*
X144367142Y-88419485D01*
X150508333Y-94104819D02*
X150175000Y-93628628D01*
X149936905Y-94104819D02*
X149936905Y-93104819D01*
X149936905Y-93104819D02*
X150317857Y-93104819D01*
X150317857Y-93104819D02*
X150413095Y-93152438D01*
X150413095Y-93152438D02*
X150460714Y-93200057D01*
X150460714Y-93200057D02*
X150508333Y-93295295D01*
X150508333Y-93295295D02*
X150508333Y-93438152D01*
X150508333Y-93438152D02*
X150460714Y-93533390D01*
X150460714Y-93533390D02*
X150413095Y-93581009D01*
X150413095Y-93581009D02*
X150317857Y-93628628D01*
X150317857Y-93628628D02*
X149936905Y-93628628D01*
X151365476Y-93438152D02*
X151365476Y-94104819D01*
X151127381Y-93057200D02*
X150889286Y-93771485D01*
X150889286Y-93771485D02*
X151508333Y-93771485D01*
X128141666Y-101044819D02*
X128141666Y-101759104D01*
X128141666Y-101759104D02*
X128094047Y-101901961D01*
X128094047Y-101901961D02*
X127998809Y-101997200D01*
X127998809Y-101997200D02*
X127855952Y-102044819D01*
X127855952Y-102044819D02*
X127760714Y-102044819D01*
X128617857Y-102044819D02*
X128617857Y-101044819D01*
X128617857Y-101044819D02*
X128998809Y-101044819D01*
X128998809Y-101044819D02*
X129094047Y-101092438D01*
X129094047Y-101092438D02*
X129141666Y-101140057D01*
X129141666Y-101140057D02*
X129189285Y-101235295D01*
X129189285Y-101235295D02*
X129189285Y-101378152D01*
X129189285Y-101378152D02*
X129141666Y-101473390D01*
X129141666Y-101473390D02*
X129094047Y-101521009D01*
X129094047Y-101521009D02*
X128998809Y-101568628D01*
X128998809Y-101568628D02*
X128617857Y-101568628D01*
X130141666Y-102044819D02*
X129570238Y-102044819D01*
X129855952Y-102044819D02*
X129855952Y-101044819D01*
X129855952Y-101044819D02*
X129760714Y-101187676D01*
X129760714Y-101187676D02*
X129665476Y-101282914D01*
X129665476Y-101282914D02*
X129570238Y-101330533D01*
X127113095Y-115554819D02*
X127113095Y-114554819D01*
X127113095Y-115031009D02*
X127684523Y-115031009D01*
X127684523Y-115554819D02*
X127684523Y-114554819D01*
X128684523Y-115554819D02*
X128113095Y-115554819D01*
X128398809Y-115554819D02*
X128398809Y-114554819D01*
X128398809Y-114554819D02*
X128303571Y-114697676D01*
X128303571Y-114697676D02*
X128208333Y-114792914D01*
X128208333Y-114792914D02*
X128113095Y-114840533D01*
X127138095Y-122854819D02*
X127138095Y-121854819D01*
X127138095Y-122331009D02*
X127709523Y-122331009D01*
X127709523Y-122854819D02*
X127709523Y-121854819D01*
X128661904Y-121854819D02*
X128185714Y-121854819D01*
X128185714Y-121854819D02*
X128138095Y-122331009D01*
X128138095Y-122331009D02*
X128185714Y-122283390D01*
X128185714Y-122283390D02*
X128280952Y-122235771D01*
X128280952Y-122235771D02*
X128519047Y-122235771D01*
X128519047Y-122235771D02*
X128614285Y-122283390D01*
X128614285Y-122283390D02*
X128661904Y-122331009D01*
X128661904Y-122331009D02*
X128709523Y-122426247D01*
X128709523Y-122426247D02*
X128709523Y-122664342D01*
X128709523Y-122664342D02*
X128661904Y-122759580D01*
X128661904Y-122759580D02*
X128614285Y-122807200D01*
X128614285Y-122807200D02*
X128519047Y-122854819D01*
X128519047Y-122854819D02*
X128280952Y-122854819D01*
X128280952Y-122854819D02*
X128185714Y-122807200D01*
X128185714Y-122807200D02*
X128138095Y-122759580D01*
X130433333Y-94679819D02*
X130100000Y-94203628D01*
X129861905Y-94679819D02*
X129861905Y-93679819D01*
X129861905Y-93679819D02*
X130242857Y-93679819D01*
X130242857Y-93679819D02*
X130338095Y-93727438D01*
X130338095Y-93727438D02*
X130385714Y-93775057D01*
X130385714Y-93775057D02*
X130433333Y-93870295D01*
X130433333Y-93870295D02*
X130433333Y-94013152D01*
X130433333Y-94013152D02*
X130385714Y-94108390D01*
X130385714Y-94108390D02*
X130338095Y-94156009D01*
X130338095Y-94156009D02*
X130242857Y-94203628D01*
X130242857Y-94203628D02*
X129861905Y-94203628D01*
X131385714Y-94679819D02*
X130814286Y-94679819D01*
X131100000Y-94679819D02*
X131100000Y-93679819D01*
X131100000Y-93679819D02*
X131004762Y-93822676D01*
X131004762Y-93822676D02*
X130909524Y-93917914D01*
X130909524Y-93917914D02*
X130814286Y-93965533D01*
X140579819Y-117741666D02*
X140103628Y-118074999D01*
X140579819Y-118313094D02*
X139579819Y-118313094D01*
X139579819Y-118313094D02*
X139579819Y-117932142D01*
X139579819Y-117932142D02*
X139627438Y-117836904D01*
X139627438Y-117836904D02*
X139675057Y-117789285D01*
X139675057Y-117789285D02*
X139770295Y-117741666D01*
X139770295Y-117741666D02*
X139913152Y-117741666D01*
X139913152Y-117741666D02*
X140008390Y-117789285D01*
X140008390Y-117789285D02*
X140056009Y-117836904D01*
X140056009Y-117836904D02*
X140103628Y-117932142D01*
X140103628Y-117932142D02*
X140103628Y-118313094D01*
X139675057Y-117360713D02*
X139627438Y-117313094D01*
X139627438Y-117313094D02*
X139579819Y-117217856D01*
X139579819Y-117217856D02*
X139579819Y-116979761D01*
X139579819Y-116979761D02*
X139627438Y-116884523D01*
X139627438Y-116884523D02*
X139675057Y-116836904D01*
X139675057Y-116836904D02*
X139770295Y-116789285D01*
X139770295Y-116789285D02*
X139865533Y-116789285D01*
X139865533Y-116789285D02*
X140008390Y-116836904D01*
X140008390Y-116836904D02*
X140579819Y-117408332D01*
X140579819Y-117408332D02*
X140579819Y-116789285D01*
X134817800Y-98641667D02*
X134770180Y-98784524D01*
X134770180Y-98784524D02*
X134770180Y-99022619D01*
X134770180Y-99022619D02*
X134817800Y-99117857D01*
X134817800Y-99117857D02*
X134865419Y-99165476D01*
X134865419Y-99165476D02*
X134960657Y-99213095D01*
X134960657Y-99213095D02*
X135055895Y-99213095D01*
X135055895Y-99213095D02*
X135151133Y-99165476D01*
X135151133Y-99165476D02*
X135198752Y-99117857D01*
X135198752Y-99117857D02*
X135246371Y-99022619D01*
X135246371Y-99022619D02*
X135293990Y-98832143D01*
X135293990Y-98832143D02*
X135341609Y-98736905D01*
X135341609Y-98736905D02*
X135389228Y-98689286D01*
X135389228Y-98689286D02*
X135484466Y-98641667D01*
X135484466Y-98641667D02*
X135579704Y-98641667D01*
X135579704Y-98641667D02*
X135674942Y-98689286D01*
X135674942Y-98689286D02*
X135722561Y-98736905D01*
X135722561Y-98736905D02*
X135770180Y-98832143D01*
X135770180Y-98832143D02*
X135770180Y-99070238D01*
X135770180Y-99070238D02*
X135722561Y-99213095D01*
X135770180Y-99546429D02*
X134770180Y-99784524D01*
X134770180Y-99784524D02*
X135484466Y-99975000D01*
X135484466Y-99975000D02*
X134770180Y-100165476D01*
X134770180Y-100165476D02*
X135770180Y-100403572D01*
X134770180Y-101308333D02*
X134770180Y-100736905D01*
X134770180Y-101022619D02*
X135770180Y-101022619D01*
X135770180Y-101022619D02*
X135627323Y-100927381D01*
X135627323Y-100927381D02*
X135532085Y-100832143D01*
X135532085Y-100832143D02*
X135484466Y-100736905D01*
D11*
X149680000Y-114930000D02*
X139460000Y-114930000D01*
X152280000Y-112270000D02*
X152280000Y-113600000D01*
X149680000Y-112270000D02*
X139460000Y-112270000D01*
X139460000Y-112270000D02*
X139460000Y-114930000D01*
X149680000Y-112270000D02*
X149680000Y-114930000D01*
X150950000Y-112270000D02*
X152280000Y-112270000D01*
X133240000Y-92748000D02*
X133240000Y-91498000D01*
X132950000Y-92458000D02*
X132950000Y-86488000D01*
X132950000Y-86488000D02*
X120330000Y-86488000D01*
X132940000Y-92448000D02*
X132940000Y-91698000D01*
X132940000Y-91698000D02*
X131140000Y-91698000D01*
X132940000Y-90198000D02*
X132190000Y-90198000D01*
X132190000Y-90198000D02*
X132190000Y-87248000D01*
X132190000Y-87248000D02*
X126640000Y-87248000D01*
X131990000Y-92748000D02*
X133240000Y-92748000D01*
X131140000Y-92448000D02*
X132940000Y-92448000D01*
X131140000Y-91698000D02*
X131140000Y-92448000D01*
X129640000Y-92448000D02*
X129640000Y-91698000D01*
X129640000Y-91698000D02*
X123640000Y-91698000D01*
X123640000Y-92448000D02*
X129640000Y-92448000D01*
X123640000Y-91698000D02*
X123640000Y-92448000D01*
X122140000Y-92448000D02*
X122140000Y-91698000D01*
X122140000Y-91698000D02*
X120340000Y-91698000D01*
X121090000Y-90198000D02*
X121090000Y-87248000D01*
X121090000Y-87248000D02*
X126640000Y-87248000D01*
X120340000Y-92448000D02*
X122140000Y-92448000D01*
X120340000Y-91698000D02*
X120340000Y-92448000D01*
X120340000Y-90198000D02*
X121090000Y-90198000D01*
X120330000Y-92458000D02*
X132950000Y-92458000D01*
X120330000Y-86488000D02*
X120330000Y-92458000D01*
X123420000Y-93610000D02*
X124750000Y-93610000D01*
X123420000Y-94940000D02*
X123420000Y-93610000D01*
X123420000Y-96210000D02*
X123420000Y-108970000D01*
X123420000Y-96210000D02*
X126080000Y-96210000D01*
X123420000Y-108970000D02*
X126080000Y-108970000D01*
X126080000Y-96210000D02*
X126080000Y-108970000D01*
X152640000Y-92648000D02*
X152640000Y-91398000D01*
X152350000Y-92358000D02*
X152350000Y-86388000D01*
X152350000Y-86388000D02*
X134730000Y-86388000D01*
X152340000Y-92348000D02*
X152340000Y-91598000D01*
X152340000Y-91598000D02*
X150540000Y-91598000D01*
X152340000Y-90098000D02*
X151590000Y-90098000D01*
X151590000Y-90098000D02*
X151590000Y-87148000D01*
X151590000Y-87148000D02*
X143540000Y-87148000D01*
X151390000Y-92648000D02*
X152640000Y-92648000D01*
X150540000Y-92348000D02*
X152340000Y-92348000D01*
X150540000Y-91598000D02*
X150540000Y-92348000D01*
X149040000Y-92348000D02*
X149040000Y-91598000D01*
X149040000Y-91598000D02*
X138040000Y-91598000D01*
X138040000Y-92348000D02*
X149040000Y-92348000D01*
X138040000Y-91598000D02*
X138040000Y-92348000D01*
X136540000Y-92348000D02*
X136540000Y-91598000D01*
X136540000Y-91598000D02*
X134740000Y-91598000D01*
X135490000Y-90098000D02*
X135490000Y-87148000D01*
X135490000Y-87148000D02*
X143540000Y-87148000D01*
X134740000Y-92348000D02*
X136540000Y-92348000D01*
X134740000Y-91598000D02*
X134740000Y-92348000D01*
X134740000Y-90098000D02*
X135490000Y-90098000D01*
X134730000Y-92358000D02*
X152350000Y-92358000D01*
X134730000Y-86388000D02*
X134730000Y-92358000D01*
X151605000Y-104060000D02*
X150275000Y-104060000D01*
X151605000Y-102730000D02*
X151605000Y-104060000D01*
X151605000Y-101460000D02*
X151605000Y-96320000D01*
X151605000Y-101460000D02*
X148945000Y-101460000D01*
X151605000Y-96320000D02*
X148945000Y-96320000D01*
X148945000Y-101460000D02*
X148945000Y-96320000D01*
X127820000Y-95370000D02*
X129150000Y-95370000D01*
X127820000Y-96700000D02*
X127820000Y-95370000D01*
X127820000Y-97970000D02*
X127820000Y-100570000D01*
X127820000Y-97970000D02*
X130480000Y-97970000D01*
X127820000Y-100570000D02*
X130480000Y-100570000D01*
X130480000Y-97970000D02*
X130480000Y-100570000D01*
X133250000Y-119825000D02*
X133250000Y-118575000D01*
X132960000Y-119535000D02*
X132960000Y-113565000D01*
X132960000Y-113565000D02*
X122840000Y-113565000D01*
X132950000Y-119525000D02*
X132950000Y-118775000D01*
X132950000Y-118775000D02*
X131150000Y-118775000D01*
X132950000Y-117275000D02*
X132200000Y-117275000D01*
X132200000Y-117275000D02*
X132200000Y-114325000D01*
X132200000Y-114325000D02*
X127900000Y-114325000D01*
X132000000Y-119825000D02*
X133250000Y-119825000D01*
X131150000Y-119525000D02*
X132950000Y-119525000D01*
X131150000Y-118775000D02*
X131150000Y-119525000D01*
X129650000Y-119525000D02*
X129650000Y-118775000D01*
X129650000Y-118775000D02*
X126150000Y-118775000D01*
X126150000Y-119525000D02*
X129650000Y-119525000D01*
X126150000Y-118775000D02*
X126150000Y-119525000D01*
X124650000Y-119525000D02*
X124650000Y-118775000D01*
X124650000Y-118775000D02*
X122850000Y-118775000D01*
X123600000Y-117275000D02*
X123600000Y-114325000D01*
X123600000Y-114325000D02*
X127900000Y-114325000D01*
X122850000Y-119525000D02*
X124650000Y-119525000D01*
X122850000Y-118775000D02*
X122850000Y-119525000D01*
X122850000Y-117275000D02*
X123600000Y-117275000D01*
X122840000Y-119535000D02*
X132960000Y-119535000D01*
X122840000Y-113565000D02*
X122840000Y-119535000D01*
X119040000Y-106198000D02*
X120150000Y-106198000D01*
X119040000Y-106958000D02*
X119040000Y-106198000D01*
X119040000Y-107718000D02*
X119040000Y-126808000D01*
X119040000Y-107718000D02*
X119586529Y-107718000D01*
X119040000Y-126808000D02*
X119842470Y-126808000D01*
X120713471Y-107718000D02*
X121260000Y-107718000D01*
X121260000Y-107718000D02*
X121260000Y-126408000D01*
X123490000Y-130518000D02*
X123490000Y-129408000D01*
X124250000Y-130518000D02*
X123490000Y-130518000D01*
X125010000Y-128298000D02*
X136375000Y-128298000D01*
X125010000Y-128844529D02*
X125010000Y-128298000D01*
X125010000Y-130518000D02*
X125010000Y-129971471D01*
X125010000Y-130518000D02*
X136375000Y-130518000D01*
X134595000Y-125950000D02*
X134595000Y-114585000D01*
X135141529Y-125950000D02*
X134595000Y-125950000D01*
X135397470Y-114585000D02*
X134595000Y-114585000D01*
X136375000Y-129100470D02*
X136375000Y-128298000D01*
X136375000Y-130518000D02*
X136375000Y-129715530D01*
X136815000Y-114585000D02*
X136012530Y-114585000D01*
X136815000Y-125950000D02*
X136268471Y-125950000D01*
X136815000Y-125950000D02*
X136815000Y-114585000D01*
X136815000Y-126710000D02*
X136815000Y-127470000D01*
X136815000Y-127470000D02*
X135705000Y-127470000D01*
X133275000Y-127200000D02*
X133275000Y-125950000D01*
X132985000Y-126910000D02*
X132985000Y-120940000D01*
X132985000Y-120940000D02*
X122865000Y-120940000D01*
X132975000Y-126900000D02*
X132975000Y-126150000D01*
X132975000Y-126150000D02*
X131175000Y-126150000D01*
X132975000Y-124650000D02*
X132225000Y-124650000D01*
X132225000Y-124650000D02*
X132225000Y-121700000D01*
X132225000Y-121700000D02*
X127925000Y-121700000D01*
X132025000Y-127200000D02*
X133275000Y-127200000D01*
X131175000Y-126900000D02*
X132975000Y-126900000D01*
X131175000Y-126150000D02*
X131175000Y-126900000D01*
X129675000Y-126900000D02*
X129675000Y-126150000D01*
X129675000Y-126150000D02*
X126175000Y-126150000D01*
X126175000Y-126900000D02*
X129675000Y-126900000D01*
X126175000Y-126150000D02*
X126175000Y-126900000D01*
X124675000Y-126900000D02*
X124675000Y-126150000D01*
X124675000Y-126150000D02*
X122875000Y-126150000D01*
X123625000Y-124650000D02*
X123625000Y-121700000D01*
X123625000Y-121700000D02*
X127925000Y-121700000D01*
X122875000Y-126900000D02*
X124675000Y-126900000D01*
X122875000Y-126150000D02*
X122875000Y-126900000D01*
X122875000Y-124650000D02*
X123625000Y-124650000D01*
X122865000Y-126910000D02*
X132985000Y-126910000D01*
X122865000Y-120940000D02*
X122865000Y-126910000D01*
%LPC*%
D12*
X150950000Y-113600000D03*
D13*
X148410000Y-113600000D03*
X145870000Y-113600000D03*
X143330000Y-113600000D03*
X140790000Y-113600000D03*
D14*
X146982500Y-102725000D03*
X146167500Y-102725000D03*
D15*
X150975000Y-128850000D03*
D16*
X130390000Y-89998000D03*
D17*
X127890000Y-89998000D03*
X125390000Y-89998000D03*
X122890000Y-89998000D03*
D12*
X124750000Y-94940000D03*
D13*
X124750000Y-97480000D03*
X124750000Y-100020000D03*
X124750000Y-102560000D03*
X124750000Y-105100000D03*
X124750000Y-107640000D03*
D16*
X149790000Y-89898000D03*
D17*
X147290000Y-89898000D03*
X144790000Y-89898000D03*
X142290000Y-89898000D03*
X139790000Y-89898000D03*
X137290000Y-89898000D03*
D18*
X150267500Y-94700000D03*
X151082500Y-94700000D03*
D12*
X150275000Y-102730000D03*
D13*
X150275000Y-100190000D03*
X150275000Y-97650000D03*
D12*
X129150000Y-96700000D03*
D13*
X129150000Y-99240000D03*
D15*
X150970000Y-82838000D03*
D16*
X130400000Y-117075000D03*
D17*
X127900000Y-117075000D03*
X125400000Y-117075000D03*
D19*
X135705000Y-125440000D03*
X135705000Y-116550000D03*
X135705000Y-117820000D03*
X135705000Y-124170000D03*
X135705000Y-115280000D03*
D20*
X135705000Y-126710000D03*
X124250000Y-129408000D03*
D19*
X125520000Y-129408000D03*
X126790000Y-129408000D03*
X128060000Y-129408000D03*
X129330000Y-129408000D03*
X130600000Y-129408000D03*
D20*
X120150000Y-106958000D03*
D19*
X120150000Y-108228000D03*
X120150000Y-109498000D03*
X120150000Y-110768000D03*
X120150000Y-112038000D03*
X133140000Y-129408000D03*
X134410000Y-129408000D03*
X135680000Y-129408000D03*
X120150000Y-115848000D03*
X120150000Y-117118000D03*
X120150000Y-118388000D03*
X120150000Y-119658000D03*
X120150000Y-120928000D03*
X120150000Y-122198000D03*
X135705000Y-122900000D03*
X135705000Y-121630000D03*
X135705000Y-120360000D03*
X131870000Y-129408000D03*
X135705000Y-119090000D03*
X120150000Y-113308000D03*
X120150000Y-114578000D03*
X120150000Y-123468000D03*
X120150000Y-124738000D03*
X120150000Y-126008000D03*
D16*
X130425000Y-124450000D03*
D17*
X127925000Y-124450000D03*
X125425000Y-124450000D03*
D14*
X129132500Y-94375000D03*
X128317500Y-94375000D03*
D15*
X120975000Y-82850000D03*
D14*
X139967500Y-116325000D03*
X140782500Y-116325000D03*
D21*
X133225000Y-96375000D03*
X133225000Y-103575000D03*
X136225000Y-96375000D03*
X136225000Y-103575000D03*
D22*
X120975000Y-128850000D03*
%LPD*%
M02*
