G04 #@! TF.GenerationSoftware,KiCad,Pcbnew,7.0.6*
G04 #@! TF.CreationDate,2023-10-04T20:15:19-05:00*
G04 #@! TF.ProjectId,qvadrans_adapter_board,71766164-7261-46e7-935f-616461707465,rev?*
G04 #@! TF.SameCoordinates,Original*
G04 #@! TF.FileFunction,Copper,L1,Top*
G04 #@! TF.FilePolarity,Positive*
%FSLAX46Y46*%
G04 Gerber Fmt 4.6, Leading zero omitted, Abs format (unit mm)*
G04 Created by KiCad (PCBNEW 7.0.6) date 2023-10-04 20:15:19*
%MOMM*%
%LPD*%
G01*
G04 APERTURE LIST*
G04 Aperture macros list*
%AMRoundRect*
0 Rectangle with rounded corners*
0 $1 Rounding radius*
0 $2 $3 $4 $5 $6 $7 $8 $9 X,Y pos of 4 corners*
0 Add a 4 corners polygon primitive as box body*
4,1,4,$2,$3,$4,$5,$6,$7,$8,$9,$2,$3,0*
0 Add four circle primitives for the rounded corners*
1,1,$1+$1,$2,$3*
1,1,$1+$1,$4,$5*
1,1,$1+$1,$6,$7*
1,1,$1+$1,$8,$9*
0 Add four rect primitives between the rounded corners*
20,1,$1+$1,$2,$3,$4,$5,0*
20,1,$1+$1,$4,$5,$6,$7,0*
20,1,$1+$1,$6,$7,$8,$9,0*
20,1,$1+$1,$8,$9,$2,$3,0*%
G04 Aperture macros list end*
G04 #@! TA.AperFunction,ComponentPad*
%ADD10R,1.700000X1.700000*%
G04 #@! TD*
G04 #@! TA.AperFunction,ComponentPad*
%ADD11O,1.700000X1.700000*%
G04 #@! TD*
G04 #@! TA.AperFunction,SMDPad,CuDef*
%ADD12RoundRect,0.100000X0.217500X0.100000X-0.217500X0.100000X-0.217500X-0.100000X0.217500X-0.100000X0*%
G04 #@! TD*
G04 #@! TA.AperFunction,ComponentPad*
%ADD13C,3.500000*%
G04 #@! TD*
G04 #@! TA.AperFunction,ComponentPad*
%ADD14R,1.700000X1.950000*%
G04 #@! TD*
G04 #@! TA.AperFunction,ComponentPad*
%ADD15O,1.700000X1.950000*%
G04 #@! TD*
G04 #@! TA.AperFunction,SMDPad,CuDef*
%ADD16RoundRect,0.100000X-0.217500X-0.100000X0.217500X-0.100000X0.217500X0.100000X-0.217500X0.100000X0*%
G04 #@! TD*
G04 #@! TA.AperFunction,ComponentPad*
%ADD17O,1.000000X1.000000*%
G04 #@! TD*
G04 #@! TA.AperFunction,ComponentPad*
%ADD18R,1.000000X1.000000*%
G04 #@! TD*
G04 #@! TA.AperFunction,SMDPad,CuDef*
%ADD19RoundRect,0.350000X-0.350000X0.450000X-0.350000X-0.450000X0.350000X-0.450000X0.350000X0.450000X0*%
G04 #@! TD*
G04 #@! TA.AperFunction,ComponentPad*
%ADD20C,3.800000*%
G04 #@! TD*
G04 #@! TA.AperFunction,ViaPad*
%ADD21C,0.800000*%
G04 #@! TD*
G04 #@! TA.AperFunction,Conductor*
%ADD22C,0.500000*%
G04 #@! TD*
G04 #@! TA.AperFunction,Conductor*
%ADD23C,1.000000*%
G04 #@! TD*
G04 #@! TA.AperFunction,Conductor*
%ADD24C,0.750000*%
G04 #@! TD*
G04 #@! TA.AperFunction,Conductor*
%ADD25C,0.250000*%
G04 #@! TD*
G04 #@! TA.AperFunction,Conductor*
%ADD26C,1.250000*%
G04 #@! TD*
G04 APERTURE END LIST*
D10*
X150950000Y-113600000D03*
D11*
X148410000Y-113600000D03*
X145870000Y-113600000D03*
X143330000Y-113600000D03*
X140790000Y-113600000D03*
D12*
X146982500Y-102725000D03*
X146167500Y-102725000D03*
D13*
X150975000Y-128850000D03*
D14*
X130390000Y-89998000D03*
D15*
X127890000Y-89998000D03*
X125390000Y-89998000D03*
X122890000Y-89998000D03*
D10*
X124750000Y-94940000D03*
D11*
X124750000Y-97480000D03*
X124750000Y-100020000D03*
X124750000Y-102560000D03*
X124750000Y-105100000D03*
X124750000Y-107640000D03*
D14*
X149790000Y-89898000D03*
D15*
X147290000Y-89898000D03*
X144790000Y-89898000D03*
X142290000Y-89898000D03*
X139790000Y-89898000D03*
X137290000Y-89898000D03*
D16*
X150267500Y-94700000D03*
X151082500Y-94700000D03*
D10*
X150275000Y-102730000D03*
D11*
X150275000Y-100190000D03*
X150275000Y-97650000D03*
D10*
X129150000Y-96700000D03*
D11*
X129150000Y-99240000D03*
D13*
X150970000Y-82838000D03*
D14*
X130400000Y-117075000D03*
D15*
X127900000Y-117075000D03*
X125400000Y-117075000D03*
D17*
X135705000Y-125440000D03*
X135705000Y-116550000D03*
X135705000Y-117820000D03*
X135705000Y-124170000D03*
X135705000Y-115280000D03*
D18*
X135705000Y-126710000D03*
X124250000Y-129408000D03*
D17*
X125520000Y-129408000D03*
X126790000Y-129408000D03*
X128060000Y-129408000D03*
X129330000Y-129408000D03*
X130600000Y-129408000D03*
D18*
X120150000Y-106958000D03*
D17*
X120150000Y-108228000D03*
X120150000Y-109498000D03*
X120150000Y-110768000D03*
X120150000Y-112038000D03*
X133140000Y-129408000D03*
X134410000Y-129408000D03*
X135680000Y-129408000D03*
X120150000Y-115848000D03*
X120150000Y-117118000D03*
X120150000Y-118388000D03*
X120150000Y-119658000D03*
X120150000Y-120928000D03*
X120150000Y-122198000D03*
X135705000Y-122900000D03*
X135705000Y-121630000D03*
X135705000Y-120360000D03*
X131870000Y-129408000D03*
X135705000Y-119090000D03*
X120150000Y-113308000D03*
X120150000Y-114578000D03*
X120150000Y-123468000D03*
X120150000Y-124738000D03*
X120150000Y-126008000D03*
D14*
X130425000Y-124450000D03*
D15*
X127925000Y-124450000D03*
X125425000Y-124450000D03*
D12*
X129132500Y-94375000D03*
X128317500Y-94375000D03*
D13*
X120975000Y-82850000D03*
D12*
X139967500Y-116325000D03*
X140782500Y-116325000D03*
D19*
X133225000Y-96375000D03*
X133225000Y-103575000D03*
X136225000Y-96375000D03*
X136225000Y-103575000D03*
D20*
X120975000Y-128850000D03*
D21*
X133200000Y-100000000D03*
D22*
X122817000Y-119658000D02*
X120150000Y-119658000D01*
X125400000Y-117075000D02*
X122817000Y-119658000D01*
X124047000Y-120928000D02*
X127900000Y-117075000D01*
X120150000Y-120928000D02*
X124047000Y-120928000D01*
D23*
X130425000Y-119852894D02*
X130425000Y-124450000D01*
X134997894Y-115280000D02*
X130425000Y-119852894D01*
X135705000Y-115280000D02*
X134997894Y-115280000D01*
X130400000Y-117075000D02*
X133202894Y-117075000D01*
D24*
X124175000Y-109625000D02*
X121508000Y-106958000D01*
X141895000Y-109625000D02*
X124175000Y-109625000D01*
X145870000Y-113600000D02*
X141895000Y-109625000D01*
X121508000Y-106958000D02*
X120150000Y-106958000D01*
D22*
X134670000Y-121630000D02*
X135705000Y-121630000D01*
X131525000Y-126100000D02*
X133400000Y-124225000D01*
X133400000Y-124225000D02*
X133400000Y-122900000D01*
X129575000Y-126100000D02*
X131525000Y-126100000D01*
X127925000Y-124450000D02*
X129575000Y-126100000D01*
X133400000Y-122900000D02*
X134670000Y-121630000D01*
X134340000Y-123585000D02*
X135025000Y-122900000D01*
X134340000Y-124685000D02*
X134340000Y-123585000D01*
X135025000Y-122900000D02*
X135705000Y-122900000D01*
X132000000Y-127025000D02*
X134340000Y-124685000D01*
X125425000Y-124450000D02*
X128000000Y-127025000D01*
X128000000Y-127025000D02*
X132000000Y-127025000D01*
X140790000Y-116317500D02*
X140790000Y-113600000D01*
D24*
X123725000Y-111125000D02*
X120828000Y-108228000D01*
X120828000Y-108228000D02*
X120150000Y-108228000D01*
X140855000Y-111125000D02*
X123725000Y-111125000D01*
X143330000Y-113600000D02*
X140855000Y-111125000D01*
D22*
X137177056Y-116325000D02*
X139967500Y-116325000D01*
D25*
X140782500Y-116325000D02*
X140790000Y-116317500D01*
D23*
X139052057Y-118200000D02*
X136132057Y-115280000D01*
X136132057Y-115280000D02*
X135705000Y-115280000D01*
X145325000Y-118200000D02*
X139052057Y-118200000D01*
X148410000Y-113600000D02*
X148410000Y-115115000D01*
X148410000Y-115115000D02*
X145325000Y-118200000D01*
D26*
X148410000Y-111063000D02*
X148410000Y-113600000D01*
X143147000Y-105800000D02*
X148410000Y-111063000D01*
D23*
X151775000Y-113600000D02*
X150950000Y-113600000D01*
X152800000Y-112575000D02*
X151775000Y-113600000D01*
X152800000Y-113350000D02*
X152800000Y-94700000D01*
X150950000Y-115200000D02*
X152800000Y-113350000D01*
X150950000Y-115200000D02*
X150950000Y-113600000D01*
X140710000Y-125440000D02*
X150950000Y-115200000D01*
X135705000Y-125440000D02*
X140710000Y-125440000D01*
X136225000Y-104700000D02*
X137325000Y-105800000D01*
X136225000Y-103575000D02*
X136225000Y-104700000D01*
D26*
X125450000Y-105800000D02*
X140800000Y-105800000D01*
D23*
X137290000Y-88735000D02*
X137290000Y-89898000D01*
X138425000Y-87600000D02*
X137290000Y-88735000D01*
X150925000Y-87525000D02*
X152800000Y-89400000D01*
X122890000Y-88935000D02*
X124300000Y-87525000D01*
X124300000Y-87525000D02*
X150925000Y-87525000D01*
X122890000Y-89998000D02*
X122890000Y-88935000D01*
X152800000Y-89400000D02*
X152800000Y-94700000D01*
D26*
X124750000Y-105100000D02*
X125450000Y-105800000D01*
X140800000Y-105800000D02*
X143147000Y-105800000D01*
D22*
X146167500Y-102779500D02*
X143147000Y-105800000D01*
D23*
X136225000Y-104675000D02*
X136225000Y-103575000D01*
X136225000Y-96375000D02*
X139790000Y-92810000D01*
X135100000Y-105800000D02*
X136225000Y-104675000D01*
D22*
X146167500Y-102725000D02*
X146167500Y-102779500D01*
D23*
X139790000Y-92810000D02*
X139790000Y-89898000D01*
X130390000Y-89998000D02*
X130390000Y-90540000D01*
X130390000Y-90540000D02*
X136225000Y-96375000D01*
X136225000Y-96375000D02*
X136225000Y-103575000D01*
D22*
X130845000Y-103575000D02*
X133225000Y-103575000D01*
X124750000Y-97480000D02*
X130845000Y-103575000D01*
X133225000Y-100025000D02*
X133225000Y-103575000D01*
X133225000Y-99975000D02*
X133200000Y-100000000D01*
X133200000Y-100000000D02*
X133225000Y-100025000D01*
X133225000Y-96375000D02*
X133225000Y-99975000D01*
D23*
X124750000Y-107640000D02*
X121150000Y-104040000D01*
X137290000Y-88640000D02*
X137290000Y-89898000D01*
D22*
X151082500Y-94700000D02*
X152800000Y-94700000D01*
D23*
X136175000Y-87525000D02*
X137290000Y-88640000D01*
X121150000Y-91738000D02*
X122890000Y-89998000D01*
D22*
X122890000Y-89998000D02*
X127267000Y-94375000D01*
X127267000Y-94375000D02*
X128292500Y-94375000D01*
D23*
X121150000Y-104040000D02*
X121150000Y-91738000D01*
D22*
X124850000Y-94940000D02*
X124750000Y-94940000D01*
X129150000Y-99240000D02*
X124850000Y-94940000D01*
X150275000Y-94707500D02*
X150267500Y-94700000D01*
X150275000Y-97650000D02*
X150275000Y-94707500D01*
X146982500Y-102725000D02*
X150270000Y-102725000D01*
X150270000Y-102725000D02*
X150275000Y-102730000D01*
X129150000Y-96700000D02*
X129150000Y-94392500D01*
X129150000Y-94392500D02*
X129132500Y-94375000D01*
M02*
