M48
; DRILL file {KiCad 7.0.6} date Wed Oct  4 20:15:33 2023
; FORMAT={-:-/ absolute / metric / decimal}
; #@! TF.CreationDate,2023-10-04T20:15:33-05:00
; #@! TF.GenerationSoftware,Kicad,Pcbnew,7.0.6
; #@! TF.FileFunction,Plated,1,2,PTH
FMAT,2
METRIC
; #@! TA.AperFunction,Plated,PTH,ViaDrill
T1C0.400
; #@! TA.AperFunction,Plated,PTH,ComponentDrill
T2C0.650
; #@! TA.AperFunction,Plated,PTH,ComponentDrill
T3C0.950
; #@! TA.AperFunction,Plated,PTH,ComponentDrill
T4C1.000
; #@! TA.AperFunction,Plated,PTH,ComponentDrill
T5C2.200
%
G90
G05
T1
X133.2Y-100.0
T2
X120.15Y-106.958
X120.15Y-108.228
X120.15Y-109.498
X120.15Y-110.768
X120.15Y-112.038
X120.15Y-113.308
X120.15Y-114.578
X120.15Y-115.848
X120.15Y-117.118
X120.15Y-118.388
X120.15Y-119.658
X120.15Y-120.928
X120.15Y-122.198
X120.15Y-123.468
X120.15Y-124.738
X120.15Y-126.008
X124.25Y-129.408
X125.52Y-129.408
X126.79Y-129.408
X128.06Y-129.408
X129.33Y-129.408
X130.6Y-129.408
X131.87Y-129.408
X133.14Y-129.408
X134.41Y-129.408
X135.68Y-129.408
X135.705Y-115.28
X135.705Y-116.55
X135.705Y-117.82
X135.705Y-119.09
X135.705Y-120.36
X135.705Y-121.63
X135.705Y-122.9
X135.705Y-124.17
X135.705Y-125.44
X135.705Y-126.71
T3
X122.89Y-89.998
X125.39Y-89.998
X125.4Y-117.075
X125.425Y-124.45
X127.89Y-89.998
X127.9Y-117.075
X127.925Y-124.45
X130.39Y-89.998
X130.4Y-117.075
X130.425Y-124.45
X137.29Y-89.898
X139.79Y-89.898
X142.29Y-89.898
X144.79Y-89.898
X147.29Y-89.898
X149.79Y-89.898
T4
X124.75Y-94.94
X124.75Y-97.48
X124.75Y-100.02
X124.75Y-102.56
X124.75Y-105.1
X124.75Y-107.64
X129.15Y-96.7
X129.15Y-99.24
X140.79Y-113.6
X143.33Y-113.6
X145.87Y-113.6
X148.41Y-113.6
X150.275Y-97.65
X150.275Y-100.19
X150.275Y-102.73
X150.95Y-113.6
T5
X120.975Y-82.85
X120.975Y-128.85
X150.97Y-82.838
X150.975Y-128.85
T0
M30
