G04 #@! TF.GenerationSoftware,KiCad,Pcbnew,7.0.6*
G04 #@! TF.CreationDate,2023-10-04T20:15:19-05:00*
G04 #@! TF.ProjectId,qvadrans_adapter_board,71766164-7261-46e7-935f-616461707465,rev?*
G04 #@! TF.SameCoordinates,Original*
G04 #@! TF.FileFunction,Copper,L2,Bot*
G04 #@! TF.FilePolarity,Positive*
%FSLAX46Y46*%
G04 Gerber Fmt 4.6, Leading zero omitted, Abs format (unit mm)*
G04 Created by KiCad (PCBNEW 7.0.6) date 2023-10-04 20:15:19*
%MOMM*%
%LPD*%
G01*
G04 APERTURE LIST*
G04 #@! TA.AperFunction,ComponentPad*
%ADD10R,1.700000X1.700000*%
G04 #@! TD*
G04 #@! TA.AperFunction,ComponentPad*
%ADD11O,1.700000X1.700000*%
G04 #@! TD*
G04 #@! TA.AperFunction,ComponentPad*
%ADD12C,3.500000*%
G04 #@! TD*
G04 #@! TA.AperFunction,ComponentPad*
%ADD13R,1.700000X1.950000*%
G04 #@! TD*
G04 #@! TA.AperFunction,ComponentPad*
%ADD14O,1.700000X1.950000*%
G04 #@! TD*
G04 #@! TA.AperFunction,ComponentPad*
%ADD15O,1.000000X1.000000*%
G04 #@! TD*
G04 #@! TA.AperFunction,ComponentPad*
%ADD16R,1.000000X1.000000*%
G04 #@! TD*
G04 #@! TA.AperFunction,ComponentPad*
%ADD17C,3.800000*%
G04 #@! TD*
G04 #@! TA.AperFunction,ViaPad*
%ADD18C,0.800000*%
G04 #@! TD*
G04 #@! TA.AperFunction,Conductor*
%ADD19C,0.500000*%
G04 #@! TD*
G04 #@! TA.AperFunction,Conductor*
%ADD20C,0.750000*%
G04 #@! TD*
G04 APERTURE END LIST*
D10*
X150950000Y-113600000D03*
D11*
X148410000Y-113600000D03*
X145870000Y-113600000D03*
X143330000Y-113600000D03*
X140790000Y-113600000D03*
D12*
X150975000Y-128850000D03*
D13*
X130390000Y-89998000D03*
D14*
X127890000Y-89998000D03*
X125390000Y-89998000D03*
X122890000Y-89998000D03*
D10*
X124750000Y-94940000D03*
D11*
X124750000Y-97480000D03*
X124750000Y-100020000D03*
X124750000Y-102560000D03*
X124750000Y-105100000D03*
X124750000Y-107640000D03*
D13*
X149790000Y-89898000D03*
D14*
X147290000Y-89898000D03*
X144790000Y-89898000D03*
X142290000Y-89898000D03*
X139790000Y-89898000D03*
X137290000Y-89898000D03*
D10*
X150275000Y-102730000D03*
D11*
X150275000Y-100190000D03*
X150275000Y-97650000D03*
D10*
X129150000Y-96700000D03*
D11*
X129150000Y-99240000D03*
D12*
X150970000Y-82838000D03*
D13*
X130400000Y-117075000D03*
D14*
X127900000Y-117075000D03*
X125400000Y-117075000D03*
D15*
X135705000Y-125440000D03*
X135705000Y-116550000D03*
X135705000Y-117820000D03*
X135705000Y-124170000D03*
X135705000Y-115280000D03*
D16*
X135705000Y-126710000D03*
X124250000Y-129408000D03*
D15*
X125520000Y-129408000D03*
X126790000Y-129408000D03*
X128060000Y-129408000D03*
X129330000Y-129408000D03*
X130600000Y-129408000D03*
D16*
X120150000Y-106958000D03*
D15*
X120150000Y-108228000D03*
X120150000Y-109498000D03*
X120150000Y-110768000D03*
X120150000Y-112038000D03*
X133140000Y-129408000D03*
X134410000Y-129408000D03*
X135680000Y-129408000D03*
X120150000Y-115848000D03*
X120150000Y-117118000D03*
X120150000Y-118388000D03*
X120150000Y-119658000D03*
X120150000Y-120928000D03*
X120150000Y-122198000D03*
X135705000Y-122900000D03*
X135705000Y-121630000D03*
X135705000Y-120360000D03*
X131870000Y-129408000D03*
X135705000Y-119090000D03*
X120150000Y-113308000D03*
X120150000Y-114578000D03*
X120150000Y-123468000D03*
X120150000Y-124738000D03*
X120150000Y-126008000D03*
D13*
X130425000Y-124450000D03*
D14*
X127925000Y-124450000D03*
X125425000Y-124450000D03*
D12*
X120975000Y-82850000D03*
D17*
X120975000Y-128850000D03*
D18*
X133200000Y-100000000D03*
D19*
X146550000Y-90638000D02*
X147290000Y-89898000D01*
X146550000Y-103500000D02*
X146550000Y-90638000D01*
X133000000Y-125975000D02*
X133000000Y-113475000D01*
X142400000Y-107650000D02*
X146550000Y-103500000D01*
X130400000Y-127475000D02*
X131500000Y-127475000D01*
X133000000Y-113475000D02*
X138825000Y-107650000D01*
X129330000Y-128545000D02*
X130400000Y-127475000D01*
X131500000Y-127475000D02*
X133000000Y-125975000D01*
X138825000Y-107650000D02*
X142400000Y-107650000D01*
X129330000Y-129408000D02*
X129330000Y-128545000D01*
X147600000Y-92088000D02*
X149790000Y-89898000D01*
X147600000Y-103875000D02*
X147600000Y-92088000D01*
X139275000Y-108725000D02*
X142750000Y-108725000D01*
X142750000Y-108725000D02*
X147600000Y-103875000D01*
X134050000Y-126450000D02*
X134050000Y-113950000D01*
X132285000Y-128215000D02*
X134050000Y-126450000D01*
X134050000Y-113950000D02*
X139275000Y-108725000D01*
X130600000Y-128800000D02*
X131185000Y-128215000D01*
X131185000Y-128215000D02*
X132285000Y-128215000D01*
X130600000Y-129408000D02*
X130600000Y-128800000D01*
X145400000Y-90508000D02*
X144790000Y-89898000D01*
X145400000Y-103150000D02*
X145400000Y-90508000D01*
X131923000Y-125564500D02*
X131923000Y-112877000D01*
X130000000Y-126625000D02*
X130862500Y-126625000D01*
X131923000Y-112877000D02*
X138150000Y-106650000D01*
X138150000Y-106650000D02*
X141900000Y-106650000D01*
X141900000Y-106650000D02*
X145400000Y-103150000D01*
X128060000Y-128565000D02*
X130000000Y-126625000D01*
X128060000Y-129408000D02*
X128060000Y-128565000D01*
X130862500Y-126625000D02*
X131923000Y-125564500D01*
X120223503Y-115848000D02*
X129150000Y-106921503D01*
X129150000Y-106921503D02*
X129150000Y-99240000D01*
X120150000Y-115848000D02*
X120223503Y-115848000D01*
D20*
X126850000Y-107837500D02*
X122649500Y-112038000D01*
X122649500Y-112038000D02*
X120150000Y-112038000D01*
X126850000Y-92825000D02*
X126850000Y-107837500D01*
X125390000Y-89998000D02*
X125390000Y-91365000D01*
X125390000Y-91365000D02*
X126850000Y-92825000D01*
X120857106Y-122198000D02*
X120150000Y-122198000D01*
X122025000Y-121030106D02*
X120857106Y-122198000D01*
X131450000Y-94950000D02*
X131450000Y-106000000D01*
X131450000Y-106000000D02*
X122025000Y-115425000D01*
X127890000Y-91390000D02*
X131450000Y-94950000D01*
X122025000Y-115425000D02*
X122025000Y-121030106D01*
X127890000Y-89998000D02*
X127890000Y-91390000D01*
D19*
X133200000Y-105750000D02*
X133200000Y-100000000D01*
X123075000Y-127233000D02*
X123075000Y-115875000D01*
X124250000Y-128408000D02*
X123075000Y-127233000D01*
X123075000Y-115875000D02*
X133200000Y-105750000D01*
X124250000Y-129408000D02*
X124250000Y-128408000D01*
X142290000Y-97960000D02*
X142290000Y-89898000D01*
X124100000Y-116150000D02*
X142290000Y-97960000D01*
X124100000Y-126450000D02*
X124100000Y-116150000D01*
X126790000Y-129140000D02*
X124100000Y-126450000D01*
X126790000Y-129408000D02*
X126790000Y-129140000D01*
X152775000Y-115900000D02*
X152775000Y-102690000D01*
X144505000Y-124170000D02*
X152775000Y-115900000D01*
X135705000Y-124170000D02*
X144505000Y-124170000D01*
X152775000Y-102690000D02*
X150275000Y-100190000D01*
X122100000Y-102670000D02*
X124750000Y-100020000D01*
X120150000Y-109498000D02*
X120857106Y-109498000D01*
X122100000Y-108255106D02*
X122100000Y-102670000D01*
X120857106Y-109498000D02*
X122100000Y-108255106D01*
X120150000Y-110768000D02*
X120857106Y-110768000D01*
X123050000Y-104260000D02*
X124750000Y-102560000D01*
X120857106Y-110768000D02*
X123050000Y-108575106D01*
X123050000Y-108575106D02*
X123050000Y-104260000D01*
M02*
